<?xml version="1.0" encoding="UTF-8"?>
<svg id="Layer_1" data-name="Layer 1" xmlns="http://www.w3.org/2000/svg" viewBox="0 0 550 178.1">
  <defs>
    <style>
      .cls-1 {
        fill: #99ca43;
      }

      .cls-2 {
        fill: #f16122;
      }

      .cls-3 {
        fill: #d42927;
      }

      .cls-4 {
        fill: #ffca26;
      }
    </style>
  </defs>
  <rect class="cls-4" x="202.2" y="14.9" width="38.4" height="38.4"/>
  <rect class="cls-2" x="264.6" y="14.9" width="38.4" height="38.4"/>
  <rect class="cls-1" x="327" y="14.9" width="38.4" height="38.4"/>
  <polygon class="cls-3" points="365.3 178.1 365.3 119.9 365.3 77.3 322.8 77.3 307.2 77.3 260.3 77.3 244.7 77.3 202.2 77.3 202.2 119.9 202.2 178.1 240.5 178.1 240.5 115.7 264.6 115.7 264.6 178.1 302.9 178.1 302.9 115.7 327 115.7 327 178.1 365.3 178.1"/>
  <polygon class="cls-3" points="398 139.7 386.8 139.7 386.8 178.1 550 178.1 550 139.7 452.3 139.7 538.7 53.3 550 53.3 550 14.9 386.8 14.9 386.8 53.3 484.5 53.3 398 139.7"/>
  <path class="cls-3" d="M89.2,55.6c4.8-1.5,9.9-2.3,15.2-2.3h73.7V14.9h-73.8c-12.3,0-24.1,2.5-34.8,7-16.1,6.8-29.7,18.1-39.3,32.4h0c-4.8,7.1-8.6,15-11.3,23.4h0c-2.6,8.4-4,17.3-4,26.5v73.8h38.4v-73.7c0-7.1,1.4-13.8,4-19.9,3.9-9.1,10.4-17,18.5-22.5h0c4.1-2.8,8.6-4.9,13.4-6.4"/>
  <path class="cls-3" d="M21.3,21.6h-3s-3.7-5.3-3.7-5.3h-1.7s0,5.3,0,5.3h-2.5s0-13.8,0-13.8h5.1c1,0,2,.2,2.9.6,1.4.6,2.3,1.9,2.3,3.4,0,2.2-1.1,3.5-3.3,4.2l4.1,5.7ZM17.4,13.3c.6-.8.7-1.8.1-2.6-1-1.1-3.3-.7-4.7-.8v4.2c1.4,0,3.5.2,4.6-.8"/>
  <path class="cls-3" d="M25.5,4.4C22.8,1.7,19,0,14.9,0S7.1,1.7,4.4,4.4C1.7,7.1,0,10.8,0,14.9s1.7,7.8,4.4,10.5c2.7,2.7,6.4,4.4,10.5,4.4,4.1,0,7.8-1.7,10.5-4.4,2.7-2.7,4.4-6.4,4.4-10.5,0-4.1-1.7-7.8-4.4-10.5M14.9,27.5c-7,0-12.6-5.7-12.6-12.6S7.9,2.3,14.9,2.3c7,0,12.6,5.7,12.6,12.6s-5.7,12.6-12.6,12.6"/>
</svg>